<svg width="220" height="271" viewBox="0 0 220 271" fill="none" xmlns="http://www.w3.org/2000/svg">
<rect x="24" y="43" width="10" height="227" rx="5" fill="#D9D9D9"/>
<rect x="64.4263" y="5" width="10" height="60" rx="5" transform="rotate(45 64.4263 5)" fill="#D9D9D9"/>
<rect x="24" width="10" height="51" rx="5" fill="#D9D9D9"/>
<rect x="24" y="17" width="10" height="44" rx="5" transform="rotate(-90 24 17)" fill="#D9D9D9"/>
<rect x="60" y="17" width="10" height="130" rx="5" transform="rotate(-90 60 17)" fill="#D9D9D9"/>
<rect x="160" y="12" width="3" height="66" fill="#D9D9D9"/>
<rect y="256" width="220" height="15" fill="#888888"/>
<rect x="160" y="115" width="3" height="60" fill="#D9D9D9"/>
<rect x="160" y="175.121" width="3" height="40" transform="rotate(-45 160 175.121)" fill="#D9D9D9"/>
<circle cx="189.5" cy="202.5" r="1.5" fill="#D9D9D9"/>
<circle cx="161.5" cy="96.5" r="20.5" fill="#D9D9D9"/>
<rect width="3" height="40" transform="matrix(-0.707107 -0.707107 -0.707107 0.707107 163 175.121)" fill="#D9D9D9"/>
<circle cx="1.5" cy="1.5" r="1.5" transform="matrix(-1 0 0 1 135 201)" fill="#D9D9D9"/>
<rect x="160" y="119.121" width="3" height="50" transform="rotate(-45 160 119.121)" fill="#D9D9D9"/>
<circle cx="196.5" cy="153.5" r="1.5" fill="#D9D9D9"/>
<rect width="3" height="50" transform="matrix(-0.707107 -0.707107 -0.707107 0.707107 163 119.121)" fill="#D9D9D9"/>
<circle cx="1.5" cy="1.5" r="1.5" transform="matrix(-1 0 0 1 128 152)" fill="#D9D9D9"/>
</svg>
