<svg width="73" height="128" viewBox="0 0 73 128" fill="none" xmlns="http://www.w3.org/2000/svg">
<rect x="35" y="39" width="3" height="60" fill="#D9D9D9"/>
<rect x="35" y="99.1211" width="3" height="40" transform="rotate(-45 35 99.1211)" fill="#D9D9D9"/>
<circle cx="64.5" cy="126.5" r="1.5" fill="#D9D9D9"/>
<circle cx="36.5" cy="20.5" r="20.5" fill="#D9D9D9"/>
<rect width="3" height="40" transform="matrix(-0.707107 -0.707107 -0.707107 0.707107 38 99.1211)" fill="#D9D9D9"/>
<circle cx="1.5" cy="1.5" r="1.5" transform="matrix(-1 0 0 1 10 125)" fill="#D9D9D9"/>
<rect x="35" y="43.1211" width="3" height="50" transform="rotate(-45 35 43.1211)" fill="#D9D9D9"/>
<circle cx="71.5" cy="77.5" r="1.5" fill="#D9D9D9"/>
<rect width="3" height="50" transform="matrix(-0.707107 -0.707107 -0.707107 0.707107 38 43.1211)" fill="#D9D9D9"/>
<circle cx="1.5" cy="1.5" r="1.5" transform="matrix(-1 0 0 1 3 76)" fill="#D9D9D9"/>
</svg>
